<svg xmlns="http://www.w3.org/2000/svg" viewBox="0 0 200 65.8">
	<path fill="#F78E1E" d="M143.1,44.1c-2.3,0-3.5-1.8-3.5-4.3V22.3h6.7l-3.4-8.9h-3.2V0h-10.3v13.4v8.9v20.3c0,6.9,3.9,10.6,11,10.6c4.3,0,7-1.1,8.5-2.5l-2.8-7.3C145.2,43.8,144.2,44.1,143.1,44.1z"/>
	<path fill="#F78E1E" d="M57.8,12.2c-12.8,0-20.6,9.4-20.6,20.4c0,11.1,7.8,20.5,20.6,20.5c12.9,0,20.7-9.4,20.7-20.5C78.4,21.6,70.7,12.2,57.8,12.2z M57.8,44c-6.4,0-9.9-5.2-9.9-11.4c0-6.1,3.5-11.3,9.9-11.3s10,5.2,10,11.3C67.7,38.7,64.1,44,57.8,44z"/>
	<path fill="#F78E1E" d="M21.2,21.3c3.5,0,6.4,1.4,8.2,4.2l0.3-0.3c0.8-3.2,2.1-6.2,3.9-8.8c-2.8-2.4-7-4.3-12.8-4.3C8.6,12.2,0,20.7,0,32.6c0,12,8.6,20.5,20.7,20.5c5.9,0,10-1.8,12.8-4.3c-1.7-2.6-3.1-5.6-3.9-8.7l-0.3-0.3c-1.8,2.6-4.7,4.2-8.2,4.2c-6.2,0-10.5-4.6-10.5-11.4S15,21.3,21.2,21.3z"/>
	<path fill="#F78E1E" d="M94.3,19.4c0-3.4-2.8-6.2-6.2-6.2h-4v31.1v7.8h10.2V27.3c1.7-2.5,6.2-4.4,9.6-4.4c1.1,0,2.1,0.2,2.8,0.3v-10C101.9,13.2,97.1,15.9,94.3,19.4z"/>
	<rect x="111.9" y="13.2" fill="#F78E1E" width="10.2" height="39"/>
	<path fill="#F78E1E" d="M178.7,13.2L168.4,40l-10-26.8h-10.9l16,39.8l-4.9,12.7h4.9c3.3,0,6.3-2,7.5-5.1l18.9-47.5C189.7,13.2,178.7,13.2,178.7,13.2z"/>
	<rect x="111.9" fill="#255EAD" width="10.2" height="8.7"/>
	<path fill="#F78E1E" d="M194.1,17.1h-0.7v-3.4h-1.2v-0.6h3v0.6H194L194.1,17.1L194.1,17.1z"/>
	<path fill="#F78E1E" d="M197.6,17.1l-1.1-3.3l0,0c0.1,0.5,0.1,0.9,0.1,1.4v1.9h-0.6v-4h0.9l1.1,3.1l0,0l1.1-3.1h0.9v4h-0.6v-2c0-0.2,0-0.5,0-0.8s0-0.5,0-0.6l0,0l-1.2,3.3H197.6z"/>
</svg>
